<svg width="325" height="242" viewBox="0 0 325 242" fill="none" xmlns="http://www.w3.org/2000/svg">
<ellipse cx="237.5" cy="88.2947" rx="87.5" ry="87.5001" fill="#F9D371" fill-opacity="0.25"/>
<path d="M270.593 141.895L238.836 128.022C230.928 124.564 221.877 122.738 212.652 122.739H58.8405L52.5216 104.324C51.4247 101.115 48.8833 98.2658 45.3029 96.2309C41.7225 94.1959 37.3092 93.0924 32.767 93.0964H20.3572C14.96 93.101 9.78571 94.6639 5.96933 97.4424C2.15296 100.221 0.00619606 103.988 0 107.918V159.792C0.0088908 165.686 3.2289 171.337 8.95355 175.505C14.6782 179.673 22.4399 182.017 30.5358 182.023H101.786V226.487C101.792 230.416 103.939 234.184 107.755 236.962C111.572 239.741 116.746 241.304 122.143 241.308H135.448C139.589 241.299 143.63 240.375 147.034 238.658C150.438 236.94 153.046 234.51 154.511 231.69L180.089 182.023H255.325C261.815 182.024 268.125 180.475 273.291 177.615C278.456 174.755 282.191 170.74 283.923 166.187C285.656 161.634 285.29 156.793 282.882 152.405C280.475 148.018 276.158 144.326 270.593 141.895V141.895ZM255.325 167.202H165.984L135.448 226.487H122.143V167.202H30.5358C27.837 167.2 25.2495 166.419 23.3411 165.03C21.4328 163.64 20.3596 161.757 20.3572 159.792V107.918H32.767L42.9456 137.56H81.4288V152.381H101.786V137.56H132.322V152.381H152.679V137.56H183.215V152.381H203.572V137.56H212.652C218.187 137.56 223.617 138.655 228.362 140.729L260.119 154.603C261.865 155.367 263.219 156.526 263.974 157.903C264.729 159.281 264.843 160.8 264.299 162.229C263.755 163.658 262.582 164.918 260.961 165.816C259.34 166.714 257.36 167.2 255.323 167.201L255.325 167.202Z" fill="#F9D371"/>
<path d="M120.312 60.7736H133.746L158.119 105.71H180L152.607 55.2112C151.11 52.4257 148.51 50.0373 145.146 48.3577C141.781 46.678 137.808 45.7848 133.746 45.7948H120.312C114.926 45.7993 109.764 47.3789 105.956 50.187C102.148 52.9951 100.006 56.8023 100 60.7736V105.71H120.312V60.7736Z" fill="#F9D371"/>
</svg>
